<svg width="19" height="18" xmlns="http://www.w3.org/2000/svg" xmlns:xlink="http://www.w3.org/1999/xlink" overflow="hidden"><defs><clipPath id="clip0"><rect x="173" y="410" width="19" height="18"/></clipPath></defs><g clip-path="url(#clip0)" transform="translate(-173 -410)"><path d="M182.5 410.559C187.471 410.559 191.5 413.833 191.5 417.872 191.5 421.911 187.471 425.185 182.5 425.185 182.032 425.185 181.564 425.156 181.1 425.096 179.167 427.029 176.859 427.376 174.628 427.427L174.628 426.953C175.852 426.475 176.716 425.364 176.878 424.059 176.878 423.892 176.865 423.725 176.84 423.559 174.834 422.355 173.577 420.215 173.503 417.876 173.5 413.833 177.529 410.559 182.5 410.559Z" stroke="#292929" fill="none"/><path d="M180.5 417.993C180.5 418.546 180.052 418.993 179.5 418.993 178.948 418.993 178.5 418.546 178.5 417.993 178.5 417.441 178.948 416.993 179.5 416.993 180.052 416.993 180.5 417.441 180.5 417.993Z" fill="#292929"/><path d="M184.5 417.993C184.5 418.546 184.052 418.993 183.5 418.993 182.948 418.993 182.5 418.546 182.5 417.993 182.5 417.441 182.948 416.993 183.5 416.993 184.052 416.993 184.5 417.441 184.5 417.993Z" fill="#292929"/><path d="M188.5 417.993C188.5 418.546 188.052 418.993 187.5 418.993 186.948 418.993 186.5 418.546 186.5 417.993 186.5 417.441 186.948 416.993 187.5 416.993 188.052 416.993 188.5 417.441 188.5 417.993Z" fill="#292929"/></g></svg>