<svg width="17" height="15" xmlns="http://www.w3.org/2000/svg" xmlns:xlink="http://www.w3.org/1999/xlink" overflow="hidden"><defs><clipPath id="clip0"><rect x="80" y="52" width="17" height="15"/></clipPath></defs><g clip-path="url(#clip0)" transform="translate(-80 -52)"><path d="M95.266 53.7565C93.6222 52.1121 90.9566 52.1116 89.3122 53.7553 89.3118 53.7557 89.3114 53.7561 89.311 53.7565L88.5 54.5675 87.689 53.7565C86.0597 52.0969 83.3936 52.0723 81.734 53.7016 80.0744 55.3308 80.0498 57.997 81.6791 59.6566 81.6972 59.6751 81.7155 59.6934 81.734 59.7115L82.545 60.5225 88.5 66.4775 94.455 60.5255 95.266 59.7145C96.9104 58.0707 96.9109 55.4051 95.2672 53.7607 95.2668 53.7603 95.2664 53.7599 95.266 53.7595Z" stroke="#FF6666" stroke-linecap="round" stroke-linejoin="round" fill="none"/></g></svg>