<svg width="17" height="15" xmlns="http://www.w3.org/2000/svg" xmlns:xlink="http://www.w3.org/1999/xlink" overflow="hidden"><defs><clipPath id="clip0"><rect x="631" y="352" width="17" height="15"/></clipPath></defs><g clip-path="url(#clip0)" transform="translate(-631 -352)"><path d="M646.266 353.757C644.622 352.112 641.957 352.112 640.312 353.755 640.312 353.756 640.311 353.756 640.311 353.757L639.5 354.568 638.689 353.757C637.06 352.097 634.394 352.072 632.734 353.702 631.074 355.331 631.05 357.997 632.679 359.657 632.697 359.675 632.716 359.693 632.734 359.712L633.545 360.523 639.5 366.478 645.455 360.526 646.266 359.715C647.91 358.071 647.911 355.405 646.267 353.761 646.267 353.76 646.266 353.76 646.266 353.76Z" stroke="#FF6666" stroke-linecap="round" stroke-linejoin="round" fill="#FF6666"/></g></svg>