<svg width="20" height="17" xmlns="http://www.w3.org/2000/svg" xmlns:xlink="http://www.w3.org/1999/xlink" overflow="hidden"><defs><clipPath id="clip0"><rect x="248" y="410" width="20" height="17"/></clipPath></defs><g clip-path="url(#clip0)" transform="translate(-248 -410)"><path d="M261.317 413.46C264.238 413.46 266.606 415.828 266.606 418.749L266.606 418.75C266.606 421.671 264.238 424.039 261.317 424.039L260.379 424.039C257.458 424.039 255.09 421.671 255.09 418.75L255.09 418.749C255.09 415.828 257.458 413.46 260.379 413.46Z"/><path d="M264.417 410.467 256.8 410.467C254.645 410.467 253.421 412.209 252.092 413.655 250.763 415.102 248.764 417.405 248.764 417.405 248.526 417.702 248.397 418.073 248.4 418.454 248.399 418.837 248.527 419.208 248.764 419.508 248.764 419.508 250.348 421.396 252.092 423.295 253.837 425.194 254.71 426.532 256.8 426.532L264.417 426.532C266.276 426.418 267.698 424.829 267.605 422.969L267.605 413.93C267.692 412.105 266.282 410.555 264.457 410.469 264.443 410.468 264.43 410.467 264.417 410.467ZM263.6 421.142C263.886 421.466 263.886 421.952 263.6 422.276 263.344 422.564 262.903 422.591 262.615 422.335 262.595 422.317 262.575 422.297 262.557 422.276L260.124 419.631 257.69 422.274C257.434 422.562 256.994 422.589 256.705 422.333 256.685 422.315 256.665 422.295 256.647 422.274 256.345 421.957 256.345 421.458 256.647 421.14L259.085 418.497 256.653 415.852C256.35 415.534 256.35 415.035 256.653 414.718 256.884 414.43 257.305 414.383 257.593 414.614 257.631 414.645 257.666 414.679 257.696 414.718L260.128 417.363 262.561 414.718C262.816 414.43 263.257 414.403 263.545 414.659 263.566 414.677 263.585 414.697 263.604 414.718 263.89 415.042 263.89 415.528 263.604 415.852L261.172 418.497Z" stroke="#292929" stroke-width="0.79713" fill="#FFFFFF"/></g></svg>